<svg xmlns="http://www.w3.org/2000/svg" width="540" height="380" fill="none" viewBox="0 0 540 380"><defs><linearGradient id="bg-top-shade" x1="270" x2="270" y1="0" y2="200" gradientUnits="userSpaceOnUse"><stop stop-color="#fff" stop-opacity=".55"/><stop offset="1" stop-color="#fff" stop-opacity="0"/></linearGradient><linearGradient id="bg-bottom-shade" x1="270" x2="270" y1="180" y2="380" gradientUnits="userSpaceOnUse"><stop stop-color="#B8B8B8" stop-opacity="0"/><stop offset="1" stop-color="#B8B8B8" stop-opacity=".28"/></linearGradient><linearGradient id="arrow-trail" x1="0" x2="1" y1="0" y2="0"><stop stop-color="#242424" stop-opacity="0"/><stop offset=".25" stop-color="#242424" stop-opacity=".22"/><stop offset="1" stop-color="#242424" stop-opacity=".22"/></linearGradient></defs><rect width="540" height="380" fill="#EFEFEF"/><rect width="540" height="380" fill="url(#bg-top-shade)"/><rect width="540" height="380" fill="url(#bg-bottom-shade)"/><line x1="0" x2="540" y1="379.5" y2="379.5" stroke="#1a1a1a" stroke-opacity=".07"/><text x="270" y="68" fill="#242424" font-family="-apple-system, BlinkMacSystemFont, 'SF Pro Display', 'Helvetica Neue', sans-serif" font-size="20" font-weight="600" letter-spacing="-.5" text-anchor="middle">Install Codeplane</text><text x="270" y="92" fill="#242424" fill-opacity=".55" font-family="-apple-system, BlinkMacSystemFont, 'SF Pro Text', 'Helvetica Neue', sans-serif" font-size="12" letter-spacing="-.1" text-anchor="middle">Drag the app into your Applications folder</text><g fill="none" stroke="#242424" stroke-linecap="round" stroke-linejoin="round" transform="translate(270 200)"><line x1="-66" x2="50" y1="0" y2="0" stroke="url(#arrow-trail)" stroke-width="1.5"/><path stroke-opacity=".42" stroke-width="1.75" d="M 42 -7 L 56 0 L 42 7"/></g><g opacity=".3"><g><path fill="#242424" d="M64 64L448 256L64 448V320L256 256L64 192V64Z" transform="translate(270 318) translate(-39 -7) scale(0.0235)"/></g><text x="-22" y="3" fill="#242424" font-family="-apple-system, BlinkMacSystemFont, 'SF Pro Text', 'Helvetica Neue', sans-serif" font-size="10" font-weight="500" letter-spacing=".3" transform="translate(270 318)">CODEPLANE</text></g></svg>