<svg xmlns="http://www.w3.org/2000/svg" width="1024" height="1024" fill="none" viewBox="0 0 1024 1024"><defs><linearGradient id="icon-top-shade" x1="512" x2="512" y1="70" y2="406" gradientUnits="userSpaceOnUse"><stop stop-color="#fff" stop-opacity=".18"/><stop offset="1" stop-color="#fff" stop-opacity="0"/></linearGradient><linearGradient id="icon-bottom-shade" x1="512" x2="512" y1="658" y2="954" gradientUnits="userSpaceOnUse"><stop stop-color="#B8B8B8" stop-opacity="0"/><stop offset="1" stop-color="#B8B8B8" stop-opacity=".22"/></linearGradient><filter id="icon-shadow" width="984" height="984" x="20" y="28" color-interpolation-filters="sRGB" filterUnits="userSpaceOnUse"><feFlood flood-opacity="0" result="BackgroundImageFix"/><feColorMatrix in="SourceAlpha" result="hardAlpha" type="matrix" values="0 0 0 0 0 0 0 0 0 0 0 0 0 0 0 0 0 0 127 0"/><feOffset dy="26"/><feGaussianBlur stdDeviation="25"/><feComposite in2="hardAlpha" operator="out"/><feColorMatrix type="matrix" values="0 0 0 0 0.180392 0 0 0 0 0.180392 0 0 0 0 0.180392 0 0 0 0.16 0"/><feBlend in2="BackgroundImageFix" mode="normal" result="effect1_dropShadow_0_1"/><feBlend in="SourceGraphic" in2="effect1_dropShadow_0_1" mode="normal" result="shape"/></filter><filter id="mark-shadow" width="618" height="614" x="203" y="205" color-interpolation-filters="sRGB" filterUnits="userSpaceOnUse"><feFlood flood-opacity="0" result="BackgroundImageFix"/><feColorMatrix in="SourceAlpha" result="hardAlpha" type="matrix" values="0 0 0 0 0 0 0 0 0 0 0 0 0 0 0 0 0 0 127 0"/><feOffset dy="18"/><feGaussianBlur stdDeviation="17"/><feComposite in2="hardAlpha" operator="out"/><feColorMatrix type="matrix" values="0 0 0 0 0.0980392 0 0 0 0 0.0980392 0 0 0 0 0.0980392 0 0 0 0.16 0"/><feBlend in2="BackgroundImageFix" mode="normal" result="effect1_dropShadow_0_1"/><feBlend in="SourceGraphic" in2="effect1_dropShadow_0_1" mode="normal" result="shape"/></filter><clipPath id="icon-clip"><rect width="884" height="884" x="70" y="70" fill="#fff" rx="214"/></clipPath></defs><g filter="url(#icon-shadow)"><rect width="884" height="884" x="70" y="70" fill="#EFEFEF" rx="214"/></g><g clip-path="url(#icon-clip)"><rect width="884" height="884" x="70" y="70" fill="#EFEFEF" rx="214"/><path fill="url(#icon-top-shade)" d="M70 70H954V332C858 298 706 280 498 282C318 284 176 300 70 328V70Z"/><path fill="url(#icon-bottom-shade)" d="M70 718C198 686 358 670 548 670C726 670 862 690 954 730V954H70V718Z"/><g filter="url(#mark-shadow)"><path fill="#242424" d="M64 64L448 256L64 448V320L256 256L64 192V64Z" transform="translate(156 156) scale(1.390625)"/></g></g></svg>