<svg width="1024" height="1024" viewBox="0 0 1024 1024" fill="none" xmlns="http://www.w3.org/2000/svg">
  <defs>
    <linearGradient id="icon-top-shade" x1="512" y1="70" x2="512" y2="406" gradientUnits="userSpaceOnUse">
      <stop stop-color="white" stop-opacity="0.18"/>
      <stop offset="1" stop-color="white" stop-opacity="0"/>
    </linearGradient>
    <linearGradient id="icon-bottom-shade" x1="512" y1="658" x2="512" y2="954" gradientUnits="userSpaceOnUse">
      <stop stop-color="#B8B8B8" stop-opacity="0"/>
      <stop offset="1" stop-color="#B8B8B8" stop-opacity="0.22"/>
    </linearGradient>
    <filter id="icon-shadow" x="20" y="28" width="984" height="984" filterUnits="userSpaceOnUse" color-interpolation-filters="sRGB">
      <feFlood flood-opacity="0" result="BackgroundImageFix"/>
      <feColorMatrix in="SourceAlpha" type="matrix" values="0 0 0 0 0 0 0 0 0 0 0 0 0 0 0 0 0 0 127 0" result="hardAlpha"/>
      <feOffset dy="26"/>
      <feGaussianBlur stdDeviation="25"/>
      <feComposite in2="hardAlpha" operator="out"/>
      <feColorMatrix type="matrix" values="0 0 0 0 0.180392 0 0 0 0 0.180392 0 0 0 0 0.180392 0 0 0 0.16 0"/>
      <feBlend mode="normal" in2="BackgroundImageFix" result="effect1_dropShadow_0_1"/>
      <feBlend mode="normal" in="SourceGraphic" in2="effect1_dropShadow_0_1" result="shape"/>
    </filter>
    <filter id="mark-shadow" x="203" y="205" width="618" height="614" filterUnits="userSpaceOnUse" color-interpolation-filters="sRGB">
      <feFlood flood-opacity="0" result="BackgroundImageFix"/>
      <feColorMatrix in="SourceAlpha" type="matrix" values="0 0 0 0 0 0 0 0 0 0 0 0 0 0 0 0 0 0 127 0" result="hardAlpha"/>
      <feOffset dy="18"/>
      <feGaussianBlur stdDeviation="17"/>
      <feComposite in2="hardAlpha" operator="out"/>
      <feColorMatrix type="matrix" values="0 0 0 0 0.0980392 0 0 0 0 0.0980392 0 0 0 0 0.0980392 0 0 0 0.16 0"/>
      <feBlend mode="normal" in2="BackgroundImageFix" result="effect1_dropShadow_0_1"/>
      <feBlend mode="normal" in="SourceGraphic" in2="effect1_dropShadow_0_1" result="shape"/>
    </filter>
    <clipPath id="icon-clip">
      <rect x="70" y="70" width="884" height="884" rx="214" fill="white"/>
    </clipPath>
  </defs>

  <g filter="url(#icon-shadow)">
    <rect x="70" y="70" width="884" height="884" rx="214" fill="#EFEFEF"/>
  </g>

  <g clip-path="url(#icon-clip)">
    <rect x="70" y="70" width="884" height="884" rx="214" fill="#EFEFEF"/>
    <path d="M70 70H954V332C858 298 706 280 498 282C318 284 176 300 70 328V70Z" fill="url(#icon-top-shade)"/>
    <path d="M70 718C198 686 358 670 548 670C726 670 862 690 954 730V954H70V718Z" fill="url(#icon-bottom-shade)"/>

    <g filter="url(#mark-shadow)">
      <path
        d="M64 64L448 256L64 448V320L256 256L64 192V64Z"
        transform="translate(156 156) scale(1.390625)"
        fill="#242424"
      />
    </g>
  </g>
</svg>
